<?xml version="1.0" encoding="UTF-8" standalone="no"?>
<!-- Created with Inkscape (http://www.inkscape.org/) -->

<svg
   xmlns:dc="http://purl.org/dc/elements/1.1/"
   xmlns:cc="http://creativecommons.org/ns#"
   xmlns:rdf="http://www.w3.org/1999/02/22-rdf-syntax-ns#"
   xmlns:svg="http://www.w3.org/2000/svg"
   xmlns="http://www.w3.org/2000/svg"
   xmlns:sodipodi="http://sodipodi.sourceforge.net/DTD/sodipodi-0.dtd"
   xmlns:inkscape="http://www.inkscape.org/namespaces/inkscape"
   width="64px"
   height="64px"
   id="svg2985"
   version="1.1"
   inkscape:version="0.48.5 r10040"
   sodipodi:docname="dock-apps.svg">
  <defs
     id="defs2987" />
  <sodipodi:namedview
     id="base"
     pagecolor="#ffffff"
     bordercolor="#666666"
     borderopacity="1.0"
     inkscape:pageopacity="0.0"
     inkscape:pageshadow="2"
     inkscape:zoom="5.5"
     inkscape:cx="3.3730253"
     inkscape:cy="13.375831"
     inkscape:current-layer="layer1"
     showgrid="true"
     inkscape:document-units="px"
     inkscape:grid-bbox="true"
     showguides="true"
     inkscape:guide-bbox="true"
     inkscape:window-width="1236"
     inkscape:window-height="999"
     inkscape:window-x="44"
     inkscape:window-y="0"
     inkscape:window-maximized="1">
    <inkscape:grid
       type="xygrid"
       id="grid2993" />
    <sodipodi:guide
       orientation="1,0"
       position="5,65"
       id="guide3217" />
    <sodipodi:guide
       orientation="0,1"
       position="33,59"
       id="guide3219" />
    <sodipodi:guide
       orientation="1,0"
       position="59,46"
       id="guide3221" />
    <sodipodi:guide
       orientation="0,1"
       position="22,5"
       id="guide3223" />
  </sodipodi:namedview>
  <metadata
     id="metadata2990">
    <rdf:RDF>
      <cc:Work
         rdf:about="">
        <dc:format>image/svg+xml</dc:format>
        <dc:type
           rdf:resource="http://purl.org/dc/dcmitype/StillImage" />
        <dc:title></dc:title>
      </cc:Work>
    </rdf:RDF>
  </metadata>
  <g
     id="layer1"
     inkscape:label="Layer 1"
     inkscape:groupmode="layer">
    <path
       id="path4096"
       d="M 35,10 C 30,10 20.559985,9.789941 15,13 4.9999999,18.773503 6,30 6,30 6,45 20,40 25,45 30,50 30,60 40,60 50,60 55,45 55,30 55,15 40,10 35,10 z m -9,4 c 2.761424,0 5,2.238576 5,5 0,2.761424 -2.238576,5 -5,5 -2.761424,0 -5,-2.238576 -5,-5 0,-2.761424 2.238576,-5 5,-5 z m 14.5,1.5 c 2.485281,0 4.5,2.014719 4.5,4.5 0,2.485281 -2.014719,4.5 -4.5,4.5 -2.485281,0 -4.5,-2.014719 -4.5,-4.5 0,-2.485281 2.014719,-4.5 4.5,-4.5 z M 15,23 c 2.761424,0 5,2.238576 5,5 0,2.761424 -2.238576,5 -5,5 -2.761424,0 -5,-2.238576 -5,-5 0,-2.761424 2.238576,-5 5,-5 z m 32,5 c 2.209139,0 4,1.790861 4,4 0,2.209139 -1.790861,4 -4,4 -2.209139,0 -4,-1.790861 -4,-4 0,-2.209139 1.790861,-4 4,-4 z m -7,18 c 1.656854,0 3,1.343146 3,3 0,1.656854 -1.343146,3 -3,3 -1.656854,0 -3,-1.343146 -3,-3 0,-1.656854 1.343146,-3 3,-3 z"
       style="fill:#000000;fill-opacity:0.23529412;stroke:none"
       inkscape:connector-curvature="0" />
    <path
       style="fill:#ffffff;fill-opacity:1;stroke:none"
       d="M 35 7 C 30 7 20.559985 6.7899411 15 10 C 4.9999999 15.773503 6 27 6 27 C 6 42 20 37 25 42 C 30 47 30 57 40 57 C 50 57 55 42 55 27 C 55 12 40 7 35 7 z M 26 11 C 28.761424 11 31 13.238576 31 16 C 31 18.761424 28.761424 21 26 21 C 23.238576 21 21 18.761424 21 16 C 21 13.238576 23.238576 11 26 11 z M 40.5 12.5 C 42.985281 12.5 45 14.514719 45 17 C 45 19.485281 42.985281 21.5 40.5 21.5 C 38.014719 21.5 36 19.485281 36 17 C 36 14.514719 38.014719 12.5 40.5 12.5 z M 15 20 C 17.761424 20 20 22.238576 20 25 C 20 27.761424 17.761424 30 15 30 C 12.238576 30 10 27.761424 10 25 C 10 22.238576 12.238576 20 15 20 z M 47 25 C 49.209139 25 51 26.790861 51 29 C 51 31.209139 49.209139 33 47 33 C 44.790861 33 43 31.209139 43 29 C 43 26.790861 44.790861 25 47 25 z M 40 43 C 41.656854 43 43 44.343146 43 46 C 43 47.656854 41.656854 49 40 49 C 38.343146 49 37 47.656854 37 46 C 37 44.343146 38.343146 43 40 43 z "
       id="path4083" />
  </g>
</svg>
