<?xml version="1.0" encoding="UTF-8" standalone="no"?>
<!-- Created with Inkscape (http://www.inkscape.org/) -->

<svg
   xmlns:dc="http://purl.org/dc/elements/1.1/"
   xmlns:cc="http://creativecommons.org/ns#"
   xmlns:rdf="http://www.w3.org/1999/02/22-rdf-syntax-ns#"
   xmlns:svg="http://www.w3.org/2000/svg"
   xmlns="http://www.w3.org/2000/svg"
   xmlns:sodipodi="http://sodipodi.sourceforge.net/DTD/sodipodi-0.dtd"
   xmlns:inkscape="http://www.inkscape.org/namespaces/inkscape"
   version="1.1"
   width="64"
   height="64"
   id="svg5038"
   inkscape:version="0.48.5 r10040"
   sodipodi:docname="lock.svg">
  <sodipodi:namedview
     pagecolor="#ffffff"
     bordercolor="#666666"
     borderopacity="1"
     objecttolerance="10"
     gridtolerance="10"
     guidetolerance="10"
     inkscape:pageopacity="0"
     inkscape:pageshadow="2"
     inkscape:window-width="1236"
     inkscape:window-height="999"
     id="namedview11"
     showgrid="true"
     inkscape:zoom="14.75"
     inkscape:cx="35.02234"
     inkscape:cy="27.756279"
     inkscape:window-x="44"
     inkscape:window-y="0"
     inkscape:window-maximized="1"
     inkscape:current-layer="svg5038">
    <inkscape:grid
       type="xygrid"
       id="grid2987" />
  </sodipodi:namedview>
  <defs
     id="defs5040" />
  <metadata
     id="metadata5043">
    <rdf:RDF>
      <cc:Work
         rdf:about="">
        <dc:format>image/svg+xml</dc:format>
        <dc:type
           rdf:resource="http://purl.org/dc/dcmitype/StillImage" />
        <dc:title></dc:title>
      </cc:Work>
    </rdf:RDF>
  </metadata>
  <rect
     y="34.084747"
     x="14"
     height="25"
     width="36"
     id="rect3792"
     style="fill:#000000;fill-opacity:0.23529412;stroke:none" />
  <path
     inkscape:connector-curvature="0"
     id="path3794"
     d="m 32,10.084746 c -7.179702,0 -13,5.820298 -13,13 0,3.685885 1.535637,7.00924 4,9.375 l 0,-9.375 c 0,-4.970563 4.029437,-9 9,-9 4.970563,0 9,4.029437 9,9 l 0,9.375 c 2.464363,-2.36576 4,-5.689115 4,-9.375 0,-7.179702 -5.820298,-13 -13,-13 z"
     style="fill:#000000;fill-opacity:0.23529412;stroke:none" />
  <rect
     y="23.084745"
     x="41"
     height="13"
     width="4"
     id="rect3796"
     style="fill:#000000;fill-opacity:0.23529412;stroke:none" />
  <rect
     ry="0"
     y="23.084745"
     x="19"
     height="13"
     width="4"
     id="rect3798"
     style="fill:#000000;fill-opacity:0.23529412;stroke:none" />
  <rect
     style="fill:#ffffff;fill-opacity:1;stroke:none"
     id="rect2986"
     width="36"
     height="25"
     x="14"
     y="31" />
  <path
     style="fill:#ffffff;fill-opacity:1;stroke:none"
     d="m 32,7 c -7.179702,0 -13,5.820298 -13,13 0,3.685885 1.535637,7.00924 4,9.375 L 23,20 c 0,-4.970563 4.029437,-9 9,-9 4.970563,0 9,4.029437 9,9 l 0,9.375 C 43.464363,27.00924 45,23.685885 45,20 45,12.820298 39.179702,7 32,7 z"
     id="path3758"
     inkscape:connector-curvature="0" />
  <rect
     style="fill:#ffffff;fill-opacity:1;stroke:none"
     id="rect3765"
     width="4"
     height="13"
     x="41"
     y="20" />
  <rect
     style="fill:#ffffff;fill-opacity:1;stroke:none"
     id="rect3767"
     width="4"
     height="13"
     x="19"
     y="20"
     ry="0" />
</svg>
