<?xml version="1.0" encoding="UTF-8" standalone="no"?>
<!-- Created with Inkscape (http://www.inkscape.org/) -->

<svg
   xmlns:dc="http://purl.org/dc/elements/1.1/"
   xmlns:cc="http://creativecommons.org/ns#"
   xmlns:rdf="http://www.w3.org/1999/02/22-rdf-syntax-ns#"
   xmlns:svg="http://www.w3.org/2000/svg"
   xmlns="http://www.w3.org/2000/svg"
   xmlns:sodipodi="http://sodipodi.sourceforge.net/DTD/sodipodi-0.dtd"
   xmlns:inkscape="http://www.inkscape.org/namespaces/inkscape"
   version="1.1"
   width="64"
   height="64"
   id="svg3854"
   inkscape:version="0.48.5 r"
   sodipodi:docname="logout.svg">
  <sodipodi:namedview
     pagecolor="#ffffff"
     bordercolor="#666666"
     borderopacity="1"
     objecttolerance="10"
     gridtolerance="10"
     guidetolerance="10"
     inkscape:pageopacity="0"
     inkscape:pageshadow="2"
     inkscape:window-width="1240"
     inkscape:window-height="994"
     id="namedview11"
     showgrid="true"
     inkscape:zoom="10.429825"
     inkscape:cx="18.282401"
     inkscape:cy="22.987295"
     inkscape:window-x="38"
     inkscape:window-y="0"
     inkscape:window-maximized="1"
     inkscape:current-layer="svg3854">
    <inkscape:grid
       type="xygrid"
       id="grid2987" />
  </sodipodi:namedview>
  <defs
     id="defs3856" />
  <metadata
     id="metadata3859">
    <rdf:RDF>
      <cc:Work
         rdf:about="">
        <dc:format>image/svg+xml</dc:format>
        <dc:type
           rdf:resource="http://purl.org/dc/dcmitype/StillImage" />
        <dc:title />
      </cc:Work>
    </rdf:RDF>
  </metadata>
  <g
     id="layer1"
     style="fill:#1a1a1a;display:inline"
     transform="translate(-10.761154,6.427539)">
    <path
       sodipodi:nodetypes="cccccccccccccccccccccc"
       inkscape:connector-curvature="0"
       style="fill:#000000;fill-opacity:0.23529412;stroke:none"
       id="path2989"
       d="m 17.694514,0.70776379 0,3.62500001 -0.01811,47.2572802 34.907557,0.02397 0,-18.375 -4.707226,0 0,13.853711 -25.466401,0 0,-42.1034102 25.741471,0 0,18.8121992 4.621601,0 0,-23.09375021 z m 38.299455,21.34375021 0,4.28125 -20.491629,0 0.189445,4.65625 20.554777,0 0,4.28125 11.429846,-6.53125 z" />
    <path
       d="m 17.694514,-1.8125 0,3.625 -0.01811,47.25728 34.907557,0.02397 0,-18.375 -4.707226,0 0,13.853711 -25.466401,0 0,-42.10341 25.741471,0 0,18.812199 4.621601,0 0,-23.09375 z m 38.299455,21.34375 0,4.28125 -20.491629,0 0.189445,4.65625 20.554777,0 0,4.28125 11.429846,-6.53125 z"
       id="path3862"
       style="fill:#ffffff;stroke:none"
       inkscape:connector-curvature="0"
       sodipodi:nodetypes="cccccccccccccccccccccc" />
  </g>
</svg>
