<?xml version="1.0" encoding="UTF-8" standalone="no"?>
<!-- Created with Inkscape (http://www.inkscape.org/) -->

<svg
   xmlns:dc="http://purl.org/dc/elements/1.1/"
   xmlns:cc="http://creativecommons.org/ns#"
   xmlns:rdf="http://www.w3.org/1999/02/22-rdf-syntax-ns#"
   xmlns:svg="http://www.w3.org/2000/svg"
   xmlns="http://www.w3.org/2000/svg"
   xmlns:sodipodi="http://sodipodi.sourceforge.net/DTD/sodipodi-0.dtd"
   xmlns:inkscape="http://www.inkscape.org/namespaces/inkscape"
   version="1.1"
   width="64"
   height="64"
   id="svg5038"
   inkscape:version="0.48.5 r"
   sodipodi:docname="restart.svg">
  <sodipodi:namedview
     pagecolor="#ffffff"
     bordercolor="#666666"
     borderopacity="1"
     objecttolerance="10"
     gridtolerance="10"
     guidetolerance="10"
     inkscape:pageopacity="0"
     inkscape:pageshadow="2"
     inkscape:window-width="708"
     inkscape:window-height="430"
     id="namedview11"
     showgrid="true"
     inkscape:zoom="7.375"
     inkscape:cx="23.75399"
     inkscape:cy="33.645279"
     inkscape:window-x="570"
     inkscape:window-y="240"
     inkscape:window-maximized="0"
     inkscape:current-layer="svg5038">
    <inkscape:grid
       type="xygrid"
       id="grid2987" />
  </sodipodi:namedview>
  <defs
     id="defs5040" />
  <metadata
     id="metadata5043">
    <rdf:RDF>
      <cc:Work
         rdf:about="">
        <dc:format>image/svg+xml</dc:format>
        <dc:type
           rdf:resource="http://purl.org/dc/dcmitype/StillImage" />
        <dc:title />
      </cc:Work>
    </rdf:RDF>
  </metadata>
  <g
     transform="matrix(1.0179319,0,0,1.0179319,-1.2694177,1.2853664)"
     style="fill:#000000;display:inline;fill-opacity:0.23529412"
     id="g2989">
    <path
       sodipodi:nodetypes="ccsssccssscccc"
       inkscape:connector-curvature="0"
       style="fill:#000000;fill-opacity:0.23529412;stroke:none"
       id="path2991"
       d="M 46.033824,9.2071727 43.620215,12.610979 C 40.435117,10.927196 36.798529,9.9807651 32.94464,9.9807651 c -12.627758,0 -22.867391,10.2396339 -22.867391,22.8673919 0,12.627758 10.239633,22.867391 22.867391,22.867391 5.872209,0 11.236376,-2.209323 15.286186,-5.848358 l -3.816675,-4.405277 c -3.084753,2.697106 -7.453345,4.773384 -11.875723,4.773384 -9.694538,0 -16.757231,-7.599771 -16.757231,-17.294309 0,-9.694539 6.610104,-17.500684 16.304642,-17.500684 3.634729,0 5.921437,0.905659 8.094971,2.085958 l -3.244433,4.491601 17.359414,2.227946 z" />
  </g>
  <g
     id="layer1"
     style="fill:#ffffff;display:inline"
     transform="matrix(1.0179319,0,0,1.0179319,-1.2694177,-1.0787512)">
    <path
       d="M 46.033824,9.2071727 43.620215,12.610979 C 40.435117,10.927196 36.798529,9.9807651 32.94464,9.9807651 c -12.627758,0 -22.867391,10.2396339 -22.867391,22.8673919 0,12.627758 10.239633,22.867391 22.867391,22.867391 5.872209,0 11.236376,-2.209323 15.286186,-5.848358 l -3.816675,-4.405277 c -3.084753,2.697106 -7.453345,4.773384 -11.875723,4.773384 -9.694538,0 -16.757231,-7.599771 -16.757231,-17.294309 0,-9.694539 6.610104,-17.500684 16.304642,-17.500684 3.634729,0 5.921437,0.905659 8.094971,2.085958 l -3.244433,4.491601 17.359414,2.227946 z"
       id="path5046"
       style="fill:#ffffff;fill-opacity:1;stroke:none"
       inkscape:connector-curvature="0"
       sodipodi:nodetypes="ccsssccssscccc" />
  </g>
</svg>
