<?xml version="1.0" encoding="UTF-8" standalone="no"?>
<!-- Created with Inkscape (http://www.inkscape.org/) -->

<svg
   xmlns:dc="http://purl.org/dc/elements/1.1/"
   xmlns:cc="http://creativecommons.org/ns#"
   xmlns:rdf="http://www.w3.org/1999/02/22-rdf-syntax-ns#"
   xmlns:svg="http://www.w3.org/2000/svg"
   xmlns="http://www.w3.org/2000/svg"
   xmlns:sodipodi="http://sodipodi.sourceforge.net/DTD/sodipodi-0.dtd"
   xmlns:inkscape="http://www.inkscape.org/namespaces/inkscape"
   version="1.1"
   width="64"
   height="64"
   id="svg2985"
   inkscape:version="0.48.5 r"
   sodipodi:docname="sleep.svg">
  <sodipodi:namedview
     pagecolor="#ffffff"
     bordercolor="#666666"
     borderopacity="1"
     objecttolerance="10"
     gridtolerance="10"
     guidetolerance="10"
     inkscape:pageopacity="0"
     inkscape:pageshadow="2"
     inkscape:window-width="1137"
     inkscape:window-height="732"
     id="namedview11"
     showgrid="true"
     inkscape:zoom="6.7151791"
     inkscape:cx="37.527841"
     inkscape:cy="33.313535"
     inkscape:window-x="43"
     inkscape:window-y="0"
     inkscape:window-maximized="0"
     inkscape:current-layer="svg2985">
    <inkscape:grid
       type="xygrid"
       id="grid2987" />
  </sodipodi:namedview>
  <defs
     id="defs2987" />
  <metadata
     id="metadata2990">
    <rdf:RDF>
      <cc:Work
         rdf:about="">
        <dc:format>image/svg+xml</dc:format>
        <dc:type
           rdf:resource="http://purl.org/dc/dcmitype/StillImage" />
        <dc:title />
      </cc:Work>
    </rdf:RDF>
  </metadata>
  <g
     transform="matrix(0.84128336,0,0,0.84128336,5.1941626,7.4656248)"
     style="fill:#000000;fill-opacity:0.23529412;display:inline"
     id="g2989">
    <path
       inkscape:connector-curvature="0"
       style="fill:#000000;fill-opacity:0.23529412;stroke:none"
       id="path2991"
       d="m 38.258152,14.066397 0,2.123242 4.281872,0 -4.529583,7.92677 0,1.875531 7.466734,0 0,-2.123242 -4.812682,0 4.494196,-7.820609 0,-1.981692 -6.900537,0 z m 7.148248,4.529583 0,1.733981 3.467962,0 -3.644898,6.405114 0,1.521656 6.015852,0 0,-1.733981 -3.89261,0 3.644899,-6.298951 0,-1.627819 -5.591205,0 z m 6.511276,12.951777 c -2.354203,0 -4.272997,1.859529 -4.423421,4.175709 -0.735627,-1.42024 -2.178104,-2.370954 -4.069547,-2.370954 l -29.902326,0 c -1.778431,0 -5.1238147,-0.102939 -5.2373305,4.246484 l -0.283099,0 0,-5.166555 -5.8035283,0 0,12.456353 0,9.236103 5.4496546,0 0,-9.236103 49.1884412,0 0,9.236103 4.741907,0 0,-9.660751 0,-11.819381 -5.23733,0 0,3.3618 0,1.592431 -0.318486,0 c 0.190842,-0.495306 0.318486,-1.02986 0.318486,-1.592431 0,-2.452356 -1.971065,-4.458808 -4.423421,-4.458808 z" />
  </g>
  <g
     id="layer1"
     style="fill:#ffffff;display:inline"
     transform="matrix(0.84128336,0,0,0.84128336,5.1941626,4.9575741)">
    <path
       d="m 38.258152,14.066397 0,2.123242 4.281872,0 -4.529583,7.92677 0,1.875531 7.466734,0 0,-2.123242 -4.812682,0 4.494196,-7.820609 0,-1.981692 -6.900537,0 z m 7.148248,4.529583 0,1.733981 3.467962,0 -3.644898,6.405114 0,1.521656 6.015852,0 0,-1.733981 -3.89261,0 3.644899,-6.298951 0,-1.627819 -5.591205,0 z m 6.511276,12.951777 c -2.354203,0 -4.272997,1.859529 -4.423421,4.175709 -0.735627,-1.42024 -2.178104,-2.370954 -4.069547,-2.370954 l -29.902326,0 c -1.778431,0 -5.1238147,-0.102939 -5.2373305,4.246484 l -0.283099,0 0,-5.166555 -5.8035283,0 0,12.456353 0,9.236103 5.4496546,0 0,-9.236103 49.1884412,0 0,9.236103 4.741907,0 0,-9.660751 0,-11.819381 -5.23733,0 0,3.3618 0,1.592431 -0.318486,0 c 0.190842,-0.495306 0.318486,-1.02986 0.318486,-1.592431 0,-2.452356 -1.971065,-4.458808 -4.423421,-4.458808 z"
       id="path3763"
       style="fill:#ffffff;stroke:none"
       inkscape:connector-curvature="0" />
  </g>
</svg>
