<?xml version="1.0" encoding="UTF-8" standalone="no"?>
<!-- Created with Inkscape (http://www.inkscape.org/) -->

<svg
   xmlns:dc="http://purl.org/dc/elements/1.1/"
   xmlns:cc="http://creativecommons.org/ns#"
   xmlns:rdf="http://www.w3.org/1999/02/22-rdf-syntax-ns#"
   xmlns:svg="http://www.w3.org/2000/svg"
   xmlns="http://www.w3.org/2000/svg"
   xmlns:sodipodi="http://sodipodi.sourceforge.net/DTD/sodipodi-0.dtd"
   xmlns:inkscape="http://www.inkscape.org/namespaces/inkscape"
   version="1.1"
   width="64"
   height="64"
   id="svg4445"
   inkscape:version="0.48.5 r10040"
   sodipodi:docname="shutdown.svg">
  <sodipodi:namedview
     pagecolor="#ffffff"
     bordercolor="#666666"
     borderopacity="1"
     objecttolerance="10"
     gridtolerance="10"
     guidetolerance="10"
     inkscape:pageopacity="0"
     inkscape:pageshadow="2"
     inkscape:window-width="1236"
     inkscape:window-height="999"
     id="namedview11"
     showgrid="true"
     inkscape:zoom="5.2149125"
     inkscape:cx="22.698014"
     inkscape:cy="8.5890621"
     inkscape:window-x="44"
     inkscape:window-y="0"
     inkscape:window-maximized="1"
     inkscape:current-layer="svg4445">
    <inkscape:grid
       type="xygrid"
       id="grid2987" />
  </sodipodi:namedview>
  <defs
     id="defs4447" />
  <metadata
     id="metadata4450">
    <rdf:RDF>
      <cc:Work
         rdf:about="">
        <dc:format>image/svg+xml</dc:format>
        <dc:type
           rdf:resource="http://purl.org/dc/dcmitype/StillImage" />
        <dc:title></dc:title>
      </cc:Work>
    </rdf:RDF>
  </metadata>
  <path
     sodipodi:nodetypes="sccccs"
     inkscape:connector-curvature="0"
     id="path3765"
     d="m 33,41 c -14,0 -23,7 -23,7 l 0,10 45,0 0,-10 c 0,0 -8,-7 -22,-7 z"
     style="fill:#000000;fill-opacity:0.23529412;stroke:none;opacity:1" />
  <path
     transform="matrix(1,0,0,1.0454545,0,-12.181815)"
     d="m 44,37 a 11,11 0 1 1 -22,0 11,11 0 1 1 22,0 z"
     sodipodi:ry="11"
     sodipodi:rx="11"
     sodipodi:cy="37"
     sodipodi:cx="33"
     id="path3767"
     style="fill:#000000;fill-opacity:0.23529412;stroke:none;opacity:1"
     sodipodi:type="arc" />
  <path
     style="fill:#ffffff;stroke:none;fill-opacity:1"
     d="m 33,38 c -14,0 -23,7 -23,7 l 0,10 45,0 0,-10 c 0,0 -8,-7 -22,-7 z"
     id="path2986"
     inkscape:connector-curvature="0"
     sodipodi:nodetypes="sccccs" />
  <path
     sodipodi:type="arc"
     style="fill:#ffffff;fill-opacity:1;stroke:none"
     id="path3763"
     sodipodi:cx="33"
     sodipodi:cy="37"
     sodipodi:rx="11"
     sodipodi:ry="11"
     d="m 44,37 a 11,11 0 1 1 -22,0 11,11 0 1 1 22,0 z"
     transform="matrix(1,0,0,1.0454545,0,-15.181815)" />
</svg>
